<svg xmlns="http://www.w3.org/2000/svg" viewBox="0 0 1020 720" font-family="Georgia, serif">
  <defs>
    <marker id="arr-s" markerWidth="9" markerHeight="7" refX="9" refY="3.5" orient="auto">
      <polygon points="0 0,9 3.5,0 7" fill="#2471a3"/>
    </marker>
    <marker id="arr-g" markerWidth="9" markerHeight="7" refX="9" refY="3.5" orient="auto">
      <polygon points="0 0,9 3.5,0 7" fill="#8e44ad"/>
    </marker>
    <marker id="arr-blue" markerWidth="9" markerHeight="7" refX="9" refY="3.5" orient="auto">
      <polygon points="0 0,9 3.5,0 7" fill="#2471a3"/>
    </marker>
    <marker id="arr-red" markerWidth="9" markerHeight="7" refX="9" refY="3.5" orient="auto">
      <polygon points="0 0,9 3.5,0 7" fill="#c0392b"/>
    </marker>
    <filter id="shadow" x="-5%" y="-5%" width="115%" height="115%">
      <feDropShadow dx="1" dy="2" stdDeviation="3" flood-color="#00000015"/>
    </filter>
  </defs>

  <!-- Background -->
  <rect width="1020" height="720" fill="#f8f7f4"/>

  <!-- Title -->
  <text x="510" y="28" text-anchor="middle" font-size="15" font-style="italic" fill="#2c3e50">
    The Minimal Iterator Relation R* — Ordered Pair Structure
  </text>
  <text x="510" y="46" text-anchor="middle" font-size="10" fill="#888">
    Blue circle = P-component of pair · Red circle = W-component · g advances in W
  </text>

  <!-- ═══════════════════════════════════════════ -->
  <!-- ZONE LABELS                                 -->
  <!-- ═══════════════════════════════════════════ -->
  <rect x="15"  y="56" width="105" height="20" rx="4" fill="#eaf4fb" stroke="#2471a3" stroke-width="1"/>
  <text x="67"  y="70" text-anchor="middle" font-size="10" fill="#2471a3" font-weight="bold">P  (stages)</text>

  <rect x="145" y="56" width="620" height="20" rx="4" fill="#fffbef" stroke="#e8b44a" stroke-width="1"/>
  <text x="455" y="70" text-anchor="middle" font-size="10" fill="#b7770d" font-weight="bold">
    P × W  (Cartesian product — ordered pairs (n, x))
  </text>

  <rect x="790" y="56" width="215" height="20" rx="4" fill="#f5eefb" stroke="#8e44ad" stroke-width="1"/>
  <text x="897" y="70" text-anchor="middle" font-size="10" fill="#8e44ad" font-weight="bold">W  (values)</text>

  <!-- ═══════════════════════════════════════════ -->
  <!-- GRID  6 rows × 7 cols                      -->
  <!-- Top-left: (148, 82)  Cell: 86w × 88h       -->
  <!-- Col centres: 191 277 363 449 535 621 707    -->
  <!-- Row centres: 126 214 302 390 478 566        -->
  <!-- ═══════════════════════════════════════════ -->

  <!-- Grid background -->
  <rect x="146" y="80" width="602" height="532" rx="6"
        fill="#fffdf5" stroke="#e8b44a" stroke-width="1.5" filter="url(#shadow)"/>

  <!-- Column headers -->
  <g font-size="9" fill="#8d6e63" text-anchor="middle">
    <text x="191" y="96">x₀</text>
    <text x="277" y="96">x₁ = a</text>
    <text x="363" y="96">x₂ = T(a)</text>
    <text x="449" y="96">x₃ = T²(a)</text>
    <text x="535" y="96">x₄ = T³(a)</text>
    <text x="621" y="96">x₅ = T⁴(a)</text>
    <text x="707" y="96">⋯</text>
  </g>

  <!-- Row header labels (left of grid, matching P nodes) -->
  <g font-size="9" fill="#1a5276" text-anchor="end">
    <text x="141" y="130">1</text>
    <text x="141" y="218">S(1)</text>
    <text x="141" y="306">S²(1)</text>
    <text x="141" y="394">S³(1)</text>
    <text x="141" y="482">S⁴(1)</text>
    <text x="141" y="570">S⁵(1)</text>
  </g>

  <!-- Grid lines (very faint) -->
  <g stroke="#e5ddd0" stroke-width="0.7">
    <line x1="234" y1="102" x2="234" y2="612"/>
    <line x1="320" y1="102" x2="320" y2="612"/>
    <line x1="406" y1="102" x2="406" y2="612"/>
    <line x1="492" y1="102" x2="492" y2="612"/>
    <line x1="578" y1="102" x2="578" y2="612"/>
    <line x1="664" y1="102" x2="664" y2="612"/>
    <line x1="148" y1="170" x2="748" y2="170"/>
    <line x1="148" y1="258" x2="748" y2="258"/>
    <line x1="148" y1="346" x2="748" y2="346"/>
    <line x1="148" y1="434" x2="748" y2="434"/>
    <line x1="148" y1="522" x2="748" y2="522"/>
  </g>

  <!-- NON-R* grey dots (very faint) -->
  <g fill="#ccc8c0" opacity="0.35">
    <!-- row 1: all cols except x1=277 -->
    <circle cx="191" cy="126" r="4"/><circle cx="363" cy="126" r="4"/>
    <circle cx="449" cy="126" r="4"/><circle cx="535" cy="126" r="4"/><circle cx="621" cy="126" r="4"/>
    <!-- row 2: all except x2=363 -->
    <circle cx="191" cy="214" r="4"/><circle cx="277" cy="214" r="4"/>
    <circle cx="449" cy="214" r="4"/><circle cx="535" cy="214" r="4"/><circle cx="621" cy="214" r="4"/>
    <!-- row 3: all except x3=449 -->
    <circle cx="191" cy="302" r="4"/><circle cx="277" cy="302" r="4"/>
    <circle cx="363" cy="302" r="4"/>
    <circle cx="535" cy="302" r="4"/><circle cx="621" cy="302" r="4"/>
    <!-- row 4: all except x4=535 -->
    <circle cx="191" cy="390" r="4"/><circle cx="277" cy="390" r="4"/>
    <circle cx="363" cy="390" r="4"/><circle cx="449" cy="390" r="4"/><circle cx="621" cy="390" r="4"/>
    <!-- row 5: all except x5=621 -->
    <circle cx="191" cy="478" r="4"/><circle cx="277" cy="478" r="4"/>
    <circle cx="363" cy="478" r="4"/><circle cx="449" cy="478" r="4"/><circle cx="535" cy="478" r="4"/>
    <!-- row 6: all -->
    <circle cx="191" cy="566" r="4"/><circle cx="277" cy="566" r="4"/>
    <circle cx="363" cy="566" r="4"/><circle cx="449" cy="566" r="4"/>
    <circle cx="535" cy="566" r="4"/><circle cx="621" cy="566" r="4"/>
  </g>

  <!-- ═══════════════════════════════════════════════════════ -->
  <!-- R* ORDERED PAIR CELLS — explicit (n, x) notation       -->
  <!-- Each cell: parentheses, blue circle for n, red for x   -->
  <!-- ═══════════════════════════════════════════════════════ -->

  <!-- ── ROW 1: (1, a)  at (277, 126) ── -->
  <rect x="247" y="104" width="60" height="44" rx="8"
        fill="#fef9f9" stroke="#aaa" stroke-width="1"/>
  <!-- open paren -->
  <text x="253" y="132" font-size="16" fill="#555">(</text>
  <!-- blue circle: 1 -->
  <circle cx="267" cy="126" r="12" fill="#2471a3" stroke="#1a5276" stroke-width="1.5"/>
  <text x="267" y="130" text-anchor="middle" font-size="10" fill="white" font-weight="bold">1</text>
  <!-- comma -->
  <text x="281" y="132" font-size="12" fill="#555">,</text>
  <!-- red circle: a -->
  <circle cx="294" cy="126" r="12" fill="#c0392b" stroke="#922b21" stroke-width="1.5"/>
  <text x="294" y="130" text-anchor="middle" font-size="10" fill="white" font-weight="bold">a</text>
  <!-- close paren -->
  <text x="307" y="132" font-size="16" fill="#555">)</text>

  <!-- ── ROW 2: (S(1), T(a))  at (363, 214) ── -->
  <rect x="327" y="192" width="72" height="44" rx="8"
        fill="#fef9f9" stroke="#aaa" stroke-width="1"/>
  <text x="333" y="220" font-size="16" fill="#555">(</text>
  <circle cx="349" cy="214" r="12" fill="#2471a3" stroke="#1a5276" stroke-width="1.5"/>
  <text x="349" y="218" text-anchor="middle" font-size="8" fill="white" font-weight="bold">S(1)</text>
  <text x="363" y="220" font-size="12" fill="#555">,</text>
  <circle cx="378" cy="214" r="12" fill="#c0392b" stroke="#922b21" stroke-width="1.5"/>
  <text x="378" y="218" text-anchor="middle" font-size="8" fill="white" font-weight="bold">T(a)</text>
  <text x="393" y="220" font-size="16" fill="#555">)</text>

  <!-- ── ROW 3: (S²(1), T²(a))  at (449, 302) ── -->
  <rect x="411" y="280" width="76" height="44" rx="8"
        fill="#fef9f9" stroke="#aaa" stroke-width="1"/>
  <text x="417" y="308" font-size="16" fill="#555">(</text>
  <circle cx="434" cy="302" r="12" fill="#2471a3" stroke="#1a5276" stroke-width="1.5"/>
  <text x="434" y="306" text-anchor="middle" font-size="8" fill="white" font-weight="bold">S²(1)</text>
  <text x="449" y="308" font-size="12" fill="#555">,</text>
  <circle cx="465" cy="302" r="12" fill="#c0392b" stroke="#922b21" stroke-width="1.5"/>
  <text x="465" y="306" text-anchor="middle" font-size="8" fill="white" font-weight="bold">T²(a)</text>
  <text x="481" y="308" font-size="16" fill="#555">)</text>

  <!-- ── ROW 4: (S³(1), T³(a))  at (535, 390) ── -->
  <rect x="497" y="368" width="76" height="44" rx="8"
        fill="#fef9f9" stroke="#aaa" stroke-width="1" opacity="0.9"/>
  <text x="503" y="396" font-size="16" fill="#555" opacity="0.9">(</text>
  <circle cx="520" cy="390" r="12" fill="#2471a3" stroke="#1a5276" stroke-width="1.5" opacity="0.85"/>
  <text x="520" y="394" text-anchor="middle" font-size="8" fill="white" font-weight="bold">S³(1)</text>
  <text x="535" y="396" font-size="12" fill="#555" opacity="0.9">,</text>
  <circle cx="551" cy="390" r="12" fill="#c0392b" stroke="#922b21" stroke-width="1.5" opacity="0.85"/>
  <text x="551" y="394" text-anchor="middle" font-size="8" fill="white" font-weight="bold">T³(a)</text>
  <text x="567" y="396" font-size="16" fill="#555" opacity="0.9">)</text>

  <!-- ── ROW 5: (S⁴(1), T⁴(a))  at (621, 478) ── -->
  <rect x="583" y="456" width="76" height="44" rx="8"
        fill="#fef9f9" stroke="#aaa" stroke-width="1" opacity="0.6"/>
  <text x="589" y="484" font-size="16" fill="#555" opacity="0.6">(</text>
  <circle cx="606" cy="478" r="12" fill="#2471a3" stroke="#1a5276" stroke-width="1.5" opacity="0.55"/>
  <text x="606" y="482" text-anchor="middle" font-size="8" fill="white" font-weight="bold">S⁴(1)</text>
  <text x="621" y="484" font-size="12" fill="#555" opacity="0.6">,</text>
  <circle cx="637" cy="478" r="12" fill="#c0392b" stroke="#922b21" stroke-width="1.5" opacity="0.55"/>
  <text x="637" y="482" text-anchor="middle" font-size="8" fill="white" font-weight="bold">T⁴(a)</text>
  <text x="653" y="484" font-size="16" fill="#555" opacity="0.6">)</text>

  <!-- ── ROW 6: faded ellipsis ── -->
  <text x="707" y="574" text-anchor="middle" font-size="18" fill="#c0392b" opacity="0.25">⋯</text>

  <!-- ═══════════════════════════════════════════ -->
  <!-- LEFT COLUMN — P (stages)                   -->
  <!-- ═══════════════════════════════════════════ -->
  <rect x="15" y="80" width="105" height="532" rx="8"
        fill="#eaf4fb" stroke="#2471a3" stroke-width="1.5" filter="url(#shadow)"/>

  <!-- Stage nodes -->
  <circle cx="67" cy="126" r="22" fill="#2471a3" stroke="#1a5276" stroke-width="2"/>
  <text x="67" y="122" text-anchor="middle" font-size="12" fill="white" font-weight="bold">1</text>
  <text x="67" y="134" text-anchor="middle" font-size="8" fill="#aed6f1">base</text>

  <circle cx="67" cy="214" r="22" fill="#2471a3" stroke="#1a5276" stroke-width="2"/>
  <text x="67" y="218" text-anchor="middle" font-size="10" fill="white" font-weight="bold">S(1)</text>

  <circle cx="67" cy="302" r="22" fill="#2471a3" stroke="#1a5276" stroke-width="2"/>
  <text x="67" y="306" text-anchor="middle" font-size="10" fill="white" font-weight="bold">S²(1)</text>

  <circle cx="67" cy="390" r="22" fill="#2471a3" stroke="#1a5276" stroke-width="2" opacity="0.85"/>
  <text x="67" y="394" text-anchor="middle" font-size="10" fill="white" font-weight="bold">S³(1)</text>

  <circle cx="67" cy="478" r="22" fill="#2471a3" stroke="#1a5276" stroke-width="2" opacity="0.6"/>
  <text x="67" y="482" text-anchor="middle" font-size="10" fill="white" font-weight="bold">S⁴(1)</text>

  <circle cx="67" cy="566" r="22" fill="#2471a3" stroke="#1a5276" stroke-width="2" opacity="0.35"/>
  <text x="67" y="570" text-anchor="middle" font-size="16" fill="white" opacity="0.7">⋮</text>

  <!-- S arrows in P column -->
  <line x1="67" y1="149" x2="67" y2="191" stroke="#2471a3" stroke-width="2.5" marker-end="url(#arr-s)"/>
  <line x1="67" y1="237" x2="67" y2="279" stroke="#2471a3" stroke-width="2.5" marker-end="url(#arr-s)"/>
  <line x1="67" y1="325" x2="67" y2="367" stroke="#2471a3" stroke-width="2.5" marker-end="url(#arr-s)" opacity="0.85"/>
  <line x1="67" y1="413" x2="67" y2="455" stroke="#2471a3" stroke-width="2.5" marker-end="url(#arr-s)" opacity="0.6"/>
  <line x1="67" y1="501" x2="67" y2="543" stroke="#2471a3" stroke-width="2.5" marker-end="url(#arr-s)" opacity="0.35"/>

  <!-- S labels -->
  <g font-size="12" fill="#2471a3" font-style="italic" text-anchor="middle">
    <text x="44" y="174">S</text>
    <text x="44" y="262">S</text>
    <text x="44" y="350" opacity="0.85">S</text>
    <text x="44" y="438" opacity="0.6">S</text>
    <text x="44" y="526" opacity="0.35">S</text>
  </g>

  <!-- ═══════════════════════════════════════════════════════ -->
  <!-- BLUE ARCS: P node → blue circle inside ordered pair    -->
  <!-- From right edge of P node to blue circle in cell       -->
  <!-- ═══════════════════════════════════════════════════════ -->

  <!-- 1 → blue ① in (1,a) at (267,126) -->
  <path d="M 90 120 Q 170 100 254 122"
        stroke="#2471a3" stroke-width="2.2" fill="none" marker-end="url(#arr-blue)"/>

  <!-- S(1) → blue circle in (S(1),T(a)) at (349,214) -->
  <path d="M 90 208 Q 215 188 336 210"
        stroke="#2471a3" stroke-width="2.2" fill="none" marker-end="url(#arr-blue)"/>

  <!-- S²(1) → blue circle in (S²(1),T²(a)) at (434,302) -->
  <path d="M 90 296 Q 258 276 421 298"
        stroke="#2471a3" stroke-width="2.2" fill="none" marker-end="url(#arr-blue)"/>

  <!-- S³(1) → blue circle in (S³(1),T³(a)) at (520,390) -->
  <path d="M 90 384 Q 300 364 507 386"
        stroke="#2471a3" stroke-width="2.2" fill="none" marker-end="url(#arr-blue)" opacity="0.8"/>

  <!-- S⁴(1) → blue circle at (606,478) -->
  <path d="M 90 472 Q 340 452 593 474"
        stroke="#2471a3" stroke-width="2.2" fill="none" marker-end="url(#arr-blue)" opacity="0.5"/>

  <!-- Blue arc labels: "n-component" -->
  <g font-size="8" fill="#2471a3" text-anchor="middle" font-style="italic">
    <text x="172" y="97">n-component</text>
    <text x="214" y="184">n-component</text>
    <text x="256" y="272">n-component</text>
  </g>

  <!-- ═══════════════════════════════════════════════════════ -->
  <!-- RED ARCS: red circle inside ordered pair → W node      -->
  <!-- ═══════════════════════════════════════════════════════ -->

  <!-- red ⓐ in (1,a) at (294,126) → W node a at (870,126) -->
  <path d="M 307 122 Q 590 100 857 122"
        stroke="#c0392b" stroke-width="2.2" fill="none" marker-end="url(#arr-red)"/>

  <!-- red T(a) in (S(1),T(a)) at (378,214) → W node T(a) at (870,214) -->
  <path d="M 392 210 Q 628 190 857 210"
        stroke="#c0392b" stroke-width="2.2" fill="none" marker-end="url(#arr-red)"/>

  <!-- red T²(a) at (465,302) → W node at (870,302) -->
  <path d="M 479 298 Q 666 278 857 298"
        stroke="#c0392b" stroke-width="2.2" fill="none" marker-end="url(#arr-red)"/>

  <!-- red T³(a) at (551,390) → W node at (870,390) -->
  <path d="M 565 386 Q 706 366 857 386"
        stroke="#c0392b" stroke-width="2.2" fill="none" marker-end="url(#arr-red)" opacity="0.8"/>

  <!-- red T⁴(a) at (637,478) → W node at (870,478) -->
  <path d="M 651 474 Q 752 454 857 474"
        stroke="#c0392b" stroke-width="2.2" fill="none" marker-end="url(#arr-red)" opacity="0.5"/>

  <!-- Red arc labels: "x-component = F(n)" -->
  <g font-size="8" fill="#c0392b" text-anchor="middle" font-style="italic">
    <text x="590" y="97">x-component = F(1)</text>
    <text x="628" y="187">x-component = F(S(1))</text>
    <text x="666" y="275">x-component = F(S²(1))</text>
  </g>

  <!-- ═══════════════════════════════════════════ -->
  <!-- RIGHT COLUMN — W (values)                  -->
  <!-- ═══════════════════════════════════════════ -->
  <rect x="790" y="80" width="215" height="532" rx="8"
        fill="#f5eefb" stroke="#8e44ad" stroke-width="1.5" filter="url(#shadow)"/>

  <text x="897" y="100" text-anchor="middle" font-size="9" fill="#7d3c98">
    dom(g) = W · rng(g) ⊆ W
  </text>

  <!-- Value nodes — red-outlined to match red circles -->
  <circle cx="870" cy="126" r="22" fill="#c0392b" stroke="#922b21" stroke-width="2"/>
  <text x="870" y="122" text-anchor="middle" font-size="11" fill="white" font-weight="bold">a</text>
  <text x="870" y="134" text-anchor="middle" font-size="8" fill="#fad7d7">= F(1)</text>

  <circle cx="870" cy="214" r="22" fill="#c0392b" stroke="#922b21" stroke-width="2"/>
  <text x="870" y="210" text-anchor="middle" font-size="9" fill="white" font-weight="bold">T(a)</text>
  <text x="870" y="222" text-anchor="middle" font-size="8" fill="#fad7d7">= F(S(1))</text>

  <circle cx="870" cy="302" r="22" fill="#c0392b" stroke="#922b21" stroke-width="2"/>
  <text x="870" y="298" text-anchor="middle" font-size="9" fill="white" font-weight="bold">T²(a)</text>
  <text x="870" y="310" text-anchor="middle" font-size="8" fill="#fad7d7">= F(S²(1))</text>

  <circle cx="870" cy="390" r="22" fill="#c0392b" stroke="#922b21" stroke-width="2" opacity="0.82"/>
  <text x="870" y="386" text-anchor="middle" font-size="9" fill="white" font-weight="bold">T³(a)</text>
  <text x="870" y="398" text-anchor="middle" font-size="8" fill="#fad7d7">= F(S³(1))</text>

  <circle cx="870" cy="478" r="22" fill="#c0392b" stroke="#922b21" stroke-width="2" opacity="0.55"/>
  <text x="870" y="474" text-anchor="middle" font-size="9" fill="white" font-weight="bold">T⁴(a)</text>
  <text x="870" y="486" text-anchor="middle" font-size="8" fill="#fad7d7">= F(S⁴(1))</text>

  <circle cx="870" cy="566" r="22" fill="#c0392b" stroke="#922b21" stroke-width="2" opacity="0.28"/>
  <text x="870" y="570" text-anchor="middle" font-size="18" fill="white" opacity="0.6">⋮</text>

  <!-- g arrows in W column -->
  <line x1="870" y1="149" x2="870" y2="191" stroke="#8e44ad" stroke-width="2.5" marker-end="url(#arr-g)"/>
  <line x1="870" y1="237" x2="870" y2="279" stroke="#8e44ad" stroke-width="2.5" marker-end="url(#arr-g)"/>
  <line x1="870" y1="325" x2="870" y2="367" stroke="#8e44ad" stroke-width="2.5" marker-end="url(#arr-g)" opacity="0.82"/>
  <line x1="870" y1="413" x2="870" y2="455" stroke="#8e44ad" stroke-width="2.5" marker-end="url(#arr-g)" opacity="0.55"/>
  <line x1="870" y1="501" x2="870" y2="543" stroke="#8e44ad" stroke-width="2.5" marker-end="url(#arr-g)" opacity="0.28"/>

  <!-- g labels -->
  <g font-size="12" fill="#8e44ad" font-style="italic">
    <text x="895" y="174">g</text>
    <text x="895" y="262">g</text>
    <text x="895" y="350" opacity="0.82">g</text>
    <text x="895" y="438" opacity="0.55">g</text>
    <text x="895" y="526" opacity="0.28">g</text>
  </g>

  <!-- ═══════════════════════════════════════════════════════ -->
  <!-- KEY EQUATION BOX                                        -->
  <!-- ═══════════════════════════════════════════════════════ -->
  <rect x="340" y="630" width="340" height="72" rx="8"
        fill="#fffdf0" stroke="#e8b44a" stroke-width="1.5"/>
  <text x="510" y="650" text-anchor="middle" font-size="11"
        fill="#b7770d" font-weight="bold">The two iterator clauses</text>
  <text x="510" y="668" text-anchor="middle" font-size="11" fill="#333">
    F(1) = a          [blue arc lands on a in row 1]
  </text>
  <text x="510" y="686" text-anchor="middle" font-size="11" fill="#333">
    F(S(n)) = g(F(n)) [red arc + g arrow = next row]
  </text>

  <!-- ═══════════════════════════════════════════════════════ -->
  <!-- LEGEND                                                  -->
  <!-- ═══════════════════════════════════════════════════════ -->
  <rect x="15" y="630" width="310" height="72" rx="6"
        fill="#f0ede8" stroke="#ccc" stroke-width="1"/>
  <text x="170" y="648" text-anchor="middle" font-size="10"
        fill="#444" font-weight="bold">Arrow key</text>
  <!-- S -->
  <line x1="30" y1="662" x2="60" y2="662" stroke="#2471a3" stroke-width="2.5" marker-end="url(#arr-s)"/>
  <text x="66" y="666" font-size="9" fill="#2471a3">S : P→P  (successor)</text>
  <!-- blue arc -->
  <path d="M 30 682 Q 45 672 60 682" stroke="#2471a3" stroke-width="2.2" fill="none" marker-end="url(#arr-blue)"/>
  <text x="66" y="686" font-size="9" fill="#2471a3">n-component of pair → blue circle</text>
  <!-- g -->
  <line x1="170" y1="662" x2="200" y2="662" stroke="#8e44ad" stroke-width="2.5" marker-end="url(#arr-g)"/>
  <text x="206" y="666" font-size="9" fill="#8e44ad">g : W→W  (step rule)</text>
  <!-- red arc -->
  <path d="M 170 682 Q 185 672 200 682" stroke="#c0392b" stroke-width="2.2" fill="none" marker-end="url(#arr-red)"/>
  <text x="206" y="686" font-size="9" fill="#c0392b">x-component = F(n) → W node</text>

  <!-- ═══════════════════════════════════════════════════════ -->
  <!-- PAIR ANATOMY CALLOUT (right side)                       -->
  <!-- ═══════════════════════════════════════════════════════ -->
  <rect x="695" y="630" width="310" height="72" rx="6"
        fill="#fef9f9" stroke="#c0392b" stroke-width="1"/>
  <text x="850" y="648" text-anchor="middle" font-size="10"
        fill="#c0392b" font-weight="bold">Anatomy of an ordered pair in R*</text>
  <!-- mini pair diagram -->
  <text x="720" y="672" font-size="14" fill="#555">(</text>
  <circle cx="736" cy="666" r="10" fill="#2471a3"/>
  <text x="736" y="670" text-anchor="middle" font-size="8" fill="white">n</text>
  <text x="748" y="672" font-size="12" fill="#555">,</text>
  <circle cx="760" cy="666" r="10" fill="#c0392b"/>
  <text x="760" y="670" text-anchor="middle" font-size="8" fill="white">x</text>
  <text x="772" y="672" font-size="14" fill="#555">)</text>
  <text x="784" y="666" font-size="9" fill="#2471a3">  ← stage n ∈ P</text>
  <text x="784" y="680" font-size="9" fill="#c0392b">  ← value x = F(n) ∈ W</text>
  <text x="850" y="696" text-anchor="middle" font-size="9" fill="#555">
    R* = { all such pairs forced by the recursion }
  </text>
</svg>
